<svg xmlns="http://www.w3.org/2000/svg" viewBox="0 0 138.7 33.2" enable-background="new 0 0 138.7 33.2"><style type="text/css">.st0{fill:#FFFFFF;} .st1{fill:#BA2229;}</style><g id="redeye-logo-inverted"><path id="Fill-1" class="st0" d="M31.6 16.2c0 8.4-6.8 15.2-15.2 15.2s-15.3-6.8-15.3-15.2c0-8.4 6.9-15.2 15.3-15.2s15.2 6.8 15.2 15.2"/><path id="Fill-2" d="M30.8 8.1c-4.6-7.8-14.8-10.4-22.7-5.8-7.8 4.7-10.4 14.9-5.8 22.7 4.7 7.9 14.9 10.5 22.7 5.8 7.9-4.6 10.5-14.8 5.8-22.7zm-6.9 20.7c-6.8 4-15.6 1.8-19.6-5-4-6.8-1.8-15.6 5-19.6 6.8-4 15.6-1.8 19.6 5 4 6.8 1.8 15.5-5 19.6z"/><path id="Fill-3" class="st1" d="M13.6 6.5l1.4 6.5c.5-.2 1-.3 1.5-.3 2.1 0 3.7 1.7 3.7 3.7s-1.7 3.7-3.7 3.7c-2.1 0-3.7-1.7-3.7-3.7 0-1.3.7-2.5 1.7-3.1l-4-5.2c-4.1 3.1-5.4 8.9-2.7 13.4 2.9 4.8 9.2 6.4 14.1 3.5 4.9-2.9 6.6-9.2 3.7-14-2.5-4.3-7.5-6-12-4.5"/><path id="Fill-4" d="M14.5 13.3c-1 .7-1.7 1.8-1.7 3.1 0 2.1 1.7 3.7 3.7 3.7 2.1 0 3.7-1.7 3.7-3.7s-1.7-3.7-3.7-3.7c-.5 0-1 .1-1.5.3l.3 1.3-.8-1"/><path id="Fill-5" class="st0" d="M44.2 8.5c4.2 0 5.8 3 5.8 5.3 0 2-1.2 3.8-3.1 4.6l3.6 8.3h-3.8l-3.3-7.6h-2.8v7.6h-3.6v-18.2h7.2zm-2 7.5c1.6 0 4 .1 4-2.2 0-2.5-2.5-2.3-4.3-2.3h-1.4v4.5h1.7z"/><path id="Fill-6" class="st0" d="M66.8 11.6h-7.7v4.4h6.4v3h-6.4v4.6h8.1v3.1h-11.8v-18.2h11.3v3.1"/><path id="Fill-7" class="st0" d="M77 8.5c6.9 0 9.4 3.9 9.4 9.1 0 5.1-2.7 9.1-8.1 9.1h-5.7v-18.2h4.4zm.9 15.1c2.9 0 4.7-1.8 4.7-6.4 0-3.8-1.6-5.6-5.1-5.6h-1.4v12h1.8z"/><path id="Fill-8" class="st0" d="M102.9 11.6h-7.7v4.4h6.4v3h-6.4v4.6h8.1v3.1h-11.7v-18.2h11.3v3.1"/><path id="Fill-9" class="st0" d="M116.8 19.3v7.3h-3.6v-7.3l-6-10.9h3.9l3.9 8 4.1-8h3.8l-6.1 10.9"/><path id="Fill-10" class="st0" d="M138.3 11.6h-7.7v4.4h6.4v3h-6.4v4.6h8.1v3.1h-11.8v-18.2h11.3v3.1"/></g></svg>