<svg xmlns="http://www.w3.org/2000/svg" viewBox="0 0 112 28.9" enable-background="new 0 0 112 28.9"><style type="text/css">.st0{fill:#FFFFFF;} .st1{fill:url(#Fill-3_1_);}</style><g id="redeye-logo-inverted"><path id="Fill-1" class="st0" d="M29 14.5c0 8-6.5 14.5-14.5 14.5s-14.5-6.5-14.5-14.5 6.6-14.5 14.6-14.5 14.4 6.5 14.4 14.5"/><linearGradient id="Fill-3_1_" gradientUnits="userSpaceOnUse" x1="5.956" y1="21.628" x2="23.016" y2="9.682" gradientTransform="matrix(1 0 0 -1 0 30)"><stop offset="0" stop-color="#E41318"/><stop offset="1" stop-color="#C11411"/></linearGradient><path id="Fill-3" class="st1" d="M11.3 4.5l1.4 6.6c.5-.2 1-.3 1.5-.3 2.1 0 3.8 1.7 3.8 3.8s-1.7 3.8-3.8 3.8-3.8-1.7-3.8-3.8c0-1.3.7-2.5 1.7-3.2l-3.9-5.3c-4.2 3.1-5.5 9-2.8 13.6 3 4.9 9.4 6.5 14.3 3.6s6.7-9.4 3.8-14.2c-2.5-4.4-7.6-6.2-12.2-4.6"/><path id="Fill-5" class="st0" d="M43.2 8.6c3.1 0 4.2 2.2 4.2 3.8 0 1.4-.9 2.7-2.3 3.3l2.6 6h-2.8l-2.4-5.5h-2v5.5l-2.8.1v-13.1c.1 0 5.5-.1 5.5-.1zm-1.4 5.4c1.2 0 2.9.1 2.9-1.6 0-1.8-1.8-1.7-3.1-1.7h-1v3.3h1.2z"/><path id="Fill-6" class="st0" d="M59.7 10.8h-5.6v3.2h4.7v2.2h-4.7v3.3h5.9v2.2h-8.6v-13.1h8.2l.1 2.2"/><path id="Fill-7" class="st0" d="M67.1 8.6c5 0 6.8 2.8 6.8 6.6 0 3.7-2 6.6-5.9 6.6h-4.1v-13.2h3.2zm.7 10.9c2.1 0 3.4-1.3 3.4-4.6 0-2.7-1.2-4-3.7-4h-1v8.7l1.3-.1z"/><path id="Fill-8" class="st0" d="M86 10.8h-5.6v3.2h4.6v2.2h-4.7v3.3h5.9v2.2h-8.5v-13.1h8.3v2.2"/><path id="Fill-9" class="st0" d="M96.1 16.4v5.3h-2.6v-5.3l-4.4-7.9h2.8l2.8 5.8 3-5.8h2.8l-4.4 7.9"/><path id="Fill-10" class="st0" d="M111.7 10.8h-5.6v3.2h4.7v2.2h-4.7v3.3h5.9v2.2h-8.6v-13.1h8.2l.1 2.2"/></g><path id="Fill-4" d="M12.1 11.4c-1 .7-1.7 1.8-1.7 3.2 0 2.1 1.7 3.8 3.8 3.8s3.8-1.7 3.8-3.8-1.7-3.8-3.8-3.8c-.5 0-1 .1-1.5.3l.3 1.3-.9-1"/></svg>