<?xml version="1.0" encoding="UTF-8" standalone="no"?>
<svg width="135px" height="26px" viewBox="0 0 135 26" version="1.1" xmlns="http://www.w3.org/2000/svg" xmlns:xlink="http://www.w3.org/1999/xlink">
    <defs></defs>
    <g id="Page-1" stroke="none" stroke-width="1" fill="none" fill-rule="evenodd">
        <g id="logo-inverted">
            <g id="redeye-logo-inverted">
                <path d="M24.2254827,12.411646 C24.2254827,18.8298267 19.0226361,24.0323391 12.6047896,24.0323391 C6.18694307,24.0323391 0.984096535,18.8298267 0.984096535,12.411646 C0.984096535,5.9937995 6.18694307,0.79095297 12.6047896,0.79095297 C19.0226361,0.79095297 24.2254827,5.9937995 24.2254827,12.411646" id="Fill-1" fill="#FFFFFF"></path>
                <path d="M23.6296782,6.2277104 C20.0698886,0.221212871 12.3137376,-1.76168317 6.30690594,1.79910891 C0.300074257,5.35923267 -1.68215347,13.1150495 1.87763614,19.1218812 C5.43809406,25.1280446 13.1932426,27.1109406 19.2000743,23.5504827 C25.2072401,19.9903589 27.189802,12.2342079 23.6296782,6.2277104 L23.6296782,6.2277104 Z M18.3456312,21.9642327 C13.1631683,25.036151 6.47164604,23.3255941 3.40006188,18.1431312 C0.327809406,12.9603342 2.03903465,6.2694802 7.22116337,3.19722772 C12.4039604,0.125309406 19.0954827,1.83586634 22.1670668,7.01832921 C25.2393193,12.2011262 23.5287624,18.8923144 18.3456312,21.9642327 L18.3456312,21.9642327 Z" id="Fill-2" fill="#000000"></path>
                <path d="M10.5169678,4.97528465 L11.5986386,9.94889851 C11.9478342,9.79518564 12.333453,9.70897277 12.7401238,9.70897277 C14.3096658,9.70897277 15.5828094,10.9821163 15.5828094,12.5519926 C15.5828094,14.1218688 14.3096658,15.3950124 12.7401238,15.3950124 C11.1695792,15.3950124 9.8967698,14.1218688 9.8967698,12.5519926 C9.8967698,11.5498515 10.4163861,10.6703465 11.1999876,10.1647649 L8.13074257,6.2180198 C4.97194307,8.60658416 4.01157178,12.9840594 6.04191832,16.4085149 C8.22464109,20.0906064 13.0398639,21.2721906 16.7944678,19.0460272 C20.5504084,16.8191955 21.8255569,12.0280322 19.6428342,8.34594059 C17.7645297,5.17711634 13.9404208,3.86587871 10.5169678,4.97528465" id="Fill-3" fill="#BA2229"></path>
                <path d="M11.1999876,10.1647649 C10.4163861,10.6703465 9.8967698,11.5498515 9.8967698,12.5519926 C9.8967698,14.1218688 11.1695792,15.3950124 12.7401238,15.3950124 C14.3096658,15.3950124 15.5828094,14.1218688 15.5828094,12.5519926 C15.5828094,10.9821163 14.3096658,9.70897277 12.7401238,9.70897277 C12.333453,9.70897277 11.9478342,9.79518564 11.5986386,9.94889851 L11.8178465,10.9587252 L11.1999876,10.1647649" id="Fill-4" fill="#000000"></path>
                <path d="M40.3392698,4.57262376 C44.5262748,4.57262376 46.163651,7.56668317 46.163651,9.88240099 C46.163651,11.8706436 44.9239233,13.7185396 43.0760272,14.4670545 L46.701646,22.7708911 L42.8655074,22.7708911 L39.590755,15.2152351 L36.8072153,15.2152351 L36.8072153,22.7708911 L33.1582054,22.7708911 L33.1582054,4.57262376 L40.3392698,4.57262376 L40.3392698,4.57262376 Z M38.3978094,12.1279455 C39.9884035,12.1279455 42.4210767,12.2215099 42.4210767,9.95257426 C42.4210767,7.44972772 39.9650124,7.66024752 38.1638985,7.66024752 L36.8072153,7.66024752 L36.8072153,12.1279455 L38.3978094,12.1279455 L38.3978094,12.1279455 Z" id="Fill-5" fill="#FFFFFF"></path>
                <path d="M62.9350619,7.66024752 L55.2627847,7.66024752 L55.2627847,12.0109901 L61.6251609,12.0109901 L61.6251609,15.0986139 L55.2627847,15.0986139 L55.2627847,19.6829332 L63.3794926,19.6829332 L63.3794926,22.7708911 L51.6137748,22.7708911 L51.6137748,4.57262376 L62.9350619,4.57262376 L62.9350619,7.66024752" id="Fill-6" fill="#FFFFFF"></path>
                <path d="M73.1335767,4.57262376 C80.0573391,4.57262376 82.5134035,8.50232673 82.5134035,13.6717574 C82.5134035,18.7940718 79.8234282,22.7708911 74.3966955,22.7708911 L68.6892698,22.7708911 L68.6892698,4.57262376 L73.1335767,4.57262376 L73.1335767,4.57262376 Z M74.1160025,19.6829332 C77.0161634,19.6829332 78.770495,17.8584282 78.770495,13.2507178 C78.770495,9.4379703 77.133453,7.66024752 73.7180198,7.66024752 L72.3379455,7.66024752 L72.3379455,19.6829332 L74.1160025,19.6829332 L74.1160025,19.6829332 Z" id="Fill-7" fill="#FFFFFF"></path>
                <path d="M99.0505693,7.66024752 L91.3782921,7.66024752 L91.3782921,12.0109901 L97.7406683,12.0109901 L97.7406683,15.0986139 L91.3782921,15.0986139 L91.3782921,19.6829332 L99.495,19.6829332 L99.495,22.7708911 L87.7292822,22.7708911 L87.7292822,4.57262376 L99.0505693,4.57262376 L99.0505693,7.66024752" id="Fill-8" fill="#FFFFFF"></path>
                <path d="M112.967933,15.4260891 L112.967933,22.7708911 L109.319257,22.7708911 L109.319257,15.4260891 L103.35453,4.57262376 L107.237116,4.57262376 L111.167153,12.5720421 L115.236869,4.57262376 L119.002834,4.57262376 L112.967933,15.4260891" id="Fill-9" fill="#FFFFFF"></path>
                <path d="M134.440953,7.66024752 L126.768676,7.66024752 L126.768676,12.0109901 L133.131052,12.0109901 L133.131052,15.0986139 L126.768676,15.0986139 L126.768676,19.6829332 L134.885384,19.6829332 L134.885384,22.7708911 L123.119666,22.7708911 L123.119666,4.57262376 L134.440953,4.57262376 L134.440953,7.66024752" id="Fill-10" fill="#FFFFFF"></path>
            </g>
        </g>
    </g>
</svg>
